<svg width="169" height="58" viewBox="0 0 169 58" fill="none" xmlns="http://www.w3.org/2000/svg">
<path d="M47.664 23V8.84H42.096V6.2H56.352V8.84H50.784V23H47.664ZM61.9978 23.168C60.3658 23.168 59.0938 22.8 58.1818 22.064C57.2698 21.328 56.8138 20.376 56.8138 19.208C56.8138 18.536 56.9818 17.928 57.3178 17.384C57.6698 16.824 58.2378 16.376 59.0218 16.04C59.8058 15.704 60.8458 15.536 62.1418 15.536H65.8378V17.504H62.3578C61.3498 17.504 60.6618 17.672 60.2938 18.008C59.9418 18.328 59.7658 18.712 59.7658 19.16C59.7658 19.736 59.9818 20.184 60.4138 20.504C60.8618 20.824 61.4778 20.984 62.2618 20.984C63.2698 20.984 64.0538 20.728 64.6138 20.216C65.1738 19.688 65.4538 19.008 65.4538 18.176V15.32C65.4538 14.44 65.1898 13.76 64.6618 13.28C64.1338 12.784 63.3418 12.536 62.2858 12.536C61.5498 12.536 60.8298 12.648 60.1258 12.872C59.4378 13.096 58.8538 13.408 58.3738 13.808L57.1978 11.624C57.8858 11.096 58.7018 10.704 59.6458 10.448C60.6058 10.176 61.5898 10.04 62.5978 10.04C64.0538 10.04 65.2298 10.312 66.1258 10.856C67.0218 11.4 67.6298 12.2 67.9498 13.256L66.5338 13.16C67.0618 12.184 67.8138 11.424 68.7898 10.88C69.7818 10.32 70.9018 10.04 72.1498 10.04C73.0778 10.04 73.9338 10.2 74.7178 10.52C75.5178 10.824 76.2138 11.264 76.8058 11.84C77.3978 12.416 77.8538 13.104 78.1738 13.904C78.5098 14.704 78.6778 15.584 78.6778 16.544C78.6778 16.736 78.6698 16.912 78.6538 17.072C78.6538 17.232 78.6378 17.376 78.6058 17.504H67.9498V15.536H76.8778L75.7738 16.184C75.7898 15.352 75.6218 14.664 75.2698 14.12C74.9178 13.576 74.4618 13.16 73.9018 12.872C73.3418 12.584 72.7498 12.44 72.1258 12.44C71.5178 12.44 70.9258 12.584 70.3498 12.872C69.7898 13.16 69.3258 13.584 68.9578 14.144C68.6058 14.704 68.4298 15.408 68.4298 16.256V16.736C68.4298 17.504 68.6058 18.184 68.9578 18.776C69.3098 19.368 69.7978 19.824 70.4218 20.144C71.0618 20.464 71.8058 20.624 72.6538 20.624C73.3738 20.624 74.0138 20.512 74.5738 20.288C75.1338 20.064 75.6538 19.712 76.1338 19.232L77.7658 21.08C77.1738 21.768 76.4298 22.288 75.5338 22.64C74.6538 22.992 73.6698 23.168 72.5818 23.168C71.5898 23.168 70.6538 23.024 69.7738 22.736C68.9098 22.432 68.1498 21.968 67.4938 21.344C66.8378 20.72 66.3178 19.912 65.9338 18.92L67.7338 18.944C67.5098 20.032 67.0938 20.888 66.4858 21.512C65.8938 22.12 65.1978 22.552 64.3978 22.808C63.6138 23.048 62.8138 23.168 61.9978 23.168ZM88.8338 10.04C89.8578 10.04 90.7698 10.24 91.5698 10.64C92.3858 11.04 93.0258 11.656 93.4898 12.488C93.9538 13.304 94.1858 14.36 94.1858 15.656V23H91.1858V16.04C91.1858 14.904 90.9138 14.056 90.3698 13.496C89.8418 12.936 89.0978 12.656 88.1378 12.656C87.4338 12.656 86.8098 12.8 86.2658 13.088C85.7218 13.376 85.2978 13.808 84.9938 14.384C84.7058 14.944 84.5618 15.656 84.5618 16.52V23H81.5618V10.184H84.4178V13.64L83.9138 12.584C84.3618 11.768 85.0098 11.144 85.8578 10.712C86.7218 10.264 87.7138 10.04 88.8338 10.04ZM100.439 20.144L100.511 16.376L107.207 10.184H110.807L105.119 15.896L103.535 17.216L100.439 20.144ZM97.9914 23V5.192H100.991V23H97.9914ZM107.663 23L102.983 17.216L104.879 14.816L111.311 23H107.663ZM123.026 13.928H131.402V16.568H123.026V13.928ZM123.29 23H120.17V6.2H132.434V8.816H123.29V23ZM140.572 23.168C139.26 23.168 138.092 22.888 137.068 22.328C136.044 21.752 135.236 20.968 134.644 19.976C134.052 18.984 133.756 17.856 133.756 16.592C133.756 15.312 134.052 14.184 134.644 13.208C135.236 12.216 136.044 11.44 137.068 10.88C138.092 10.32 139.26 10.04 140.572 10.04C141.9 10.04 143.076 10.32 144.1 10.88C145.14 11.44 145.948 12.208 146.524 13.184C147.116 14.16 147.412 15.296 147.412 16.592C147.412 17.856 147.116 18.984 146.524 19.976C145.948 20.968 145.14 21.752 144.1 22.328C143.076 22.888 141.9 23.168 140.572 23.168ZM140.572 20.6C141.308 20.6 141.964 20.44 142.54 20.12C143.116 19.8 143.564 19.336 143.884 18.728C144.22 18.12 144.388 17.408 144.388 16.592C144.388 15.76 144.22 15.048 143.884 14.456C143.564 13.848 143.116 13.384 142.54 13.064C141.964 12.744 141.316 12.584 140.596 12.584C139.86 12.584 139.204 12.744 138.628 13.064C138.068 13.384 137.62 13.848 137.284 14.456C136.948 15.048 136.78 15.76 136.78 16.592C136.78 17.408 136.948 18.12 137.284 18.728C137.62 19.336 138.068 19.8 138.628 20.12C139.204 20.44 139.852 20.6 140.572 20.6ZM134.428 24.704L144.988 8.576H146.668L136.108 24.704H134.428ZM150.281 23V10.184H153.137V13.712L152.801 12.68C153.185 11.816 153.785 11.16 154.601 10.712C155.433 10.264 156.465 10.04 157.697 10.04V12.896C157.569 12.864 157.449 12.848 157.337 12.848C157.225 12.832 157.113 12.824 157.001 12.824C155.865 12.824 154.961 13.16 154.289 13.832C153.617 14.488 153.281 15.472 153.281 16.784V23H150.281ZM44.256 52V35.2H51.6C53.424 35.2 55.024 35.552 56.4 36.256C57.776 36.96 58.848 37.936 59.616 39.184C60.384 40.432 60.768 41.904 60.768 43.6C60.768 45.28 60.384 46.752 59.616 48.016C58.848 49.264 57.776 50.24 56.4 50.944C55.024 51.648 53.424 52 51.6 52H44.256ZM47.376 49.36H51.456C52.72 49.36 53.808 49.12 54.72 48.64C55.648 48.16 56.36 47.488 56.856 46.624C57.368 45.76 57.624 44.752 57.624 43.6C57.624 42.432 57.368 41.424 56.856 40.576C56.36 39.712 55.648 39.04 54.72 38.56C53.808 38.08 52.72 37.84 51.456 37.84H47.376V49.36ZM69.2201 52.168C68.1321 52.168 67.1721 51.968 66.3401 51.568C65.5081 51.152 64.8601 50.528 64.3961 49.696C63.9321 48.848 63.7001 47.784 63.7001 46.504V39.184H66.7001V46.096C66.7001 47.248 66.9561 48.112 67.4681 48.688C67.9961 49.248 68.7401 49.528 69.7001 49.528C70.4041 49.528 71.0121 49.384 71.5241 49.096C72.0521 48.808 72.4601 48.376 72.7481 47.8C73.0521 47.224 73.2041 46.512 73.2041 45.664V39.184H76.2041V52H73.3481V48.544L73.8521 49.6C73.4201 50.432 72.7881 51.072 71.9561 51.52C71.1241 51.952 70.2121 52.168 69.2201 52.168ZM89.2129 49.144L89.2849 45.376L95.9809 39.184H99.5809L93.8929 44.896L92.3089 46.216L89.2129 49.144ZM86.7649 52V34.192H89.7649V52H86.7649ZM96.4369 52L91.7569 46.216L93.6529 43.816L100.085 52H96.4369ZM102.023 52V34.192H105.023V52H102.023ZM108.96 52V39.184H111.96V52H108.96ZM110.472 37.072C109.912 37.072 109.448 36.896 109.08 36.544C108.728 36.192 108.552 35.768 108.552 35.272C108.552 34.76 108.728 34.336 109.08 34C109.448 33.648 109.912 33.472 110.472 33.472C111.032 33.472 111.488 33.64 111.84 33.976C112.208 34.296 112.392 34.704 112.392 35.2C112.392 35.728 112.216 36.176 111.864 36.544C111.512 36.896 111.048 37.072 110.472 37.072ZM118.346 49.144L118.418 45.376L125.114 39.184H128.714L123.026 44.896L121.442 46.216L118.346 49.144ZM115.898 52V34.192H118.898V52H115.898ZM125.57 52L120.89 46.216L122.786 43.816L129.218 52H125.57ZM133.604 49.144L133.676 45.376L140.372 39.184H143.972L138.284 44.896L136.7 46.216L133.604 49.144ZM131.156 52V34.192H134.156V52H131.156ZM140.828 52L136.148 46.216L138.044 43.816L144.476 52H140.828ZM151.922 52.168C150.498 52.168 149.25 51.888 148.178 51.328C147.122 50.752 146.298 49.968 145.706 48.976C145.13 47.984 144.842 46.856 144.842 45.592C144.842 44.312 145.122 43.184 145.682 42.208C146.258 41.216 147.042 40.44 148.034 39.88C149.042 39.32 150.186 39.04 151.466 39.04C152.714 39.04 153.826 39.312 154.802 39.856C155.778 40.4 156.546 41.168 157.106 42.16C157.666 43.152 157.946 44.32 157.946 45.664C157.946 45.792 157.938 45.936 157.922 46.096C157.922 46.256 157.914 46.408 157.898 46.552H147.218V44.56H156.314L155.138 45.184C155.154 44.448 155.002 43.8 154.682 43.24C154.362 42.68 153.922 42.24 153.362 41.92C152.818 41.6 152.186 41.44 151.466 41.44C150.73 41.44 150.082 41.6 149.522 41.92C148.978 42.24 148.546 42.688 148.226 43.264C147.922 43.824 147.77 44.488 147.77 45.256V45.736C147.77 46.504 147.946 47.184 148.298 47.776C148.65 48.368 149.146 48.824 149.786 49.144C150.426 49.464 151.162 49.624 151.994 49.624C152.714 49.624 153.362 49.512 153.938 49.288C154.514 49.064 155.026 48.712 155.474 48.232L157.082 50.08C156.506 50.752 155.778 51.272 154.898 51.64C154.034 51.992 153.042 52.168 151.922 52.168ZM160.827 52V39.184H163.683V42.712L163.347 41.68C163.731 40.816 164.331 40.16 165.147 39.712C165.979 39.264 167.011 39.04 168.243 39.04V41.896C168.115 41.864 167.995 41.848 167.883 41.848C167.771 41.832 167.659 41.824 167.547 41.824C166.411 41.824 165.507 42.16 164.835 42.832C164.163 43.488 163.827 44.472 163.827 45.784V52H160.827Z" fill="#2C3E50"/>
<path d="M17.6538 27.3333L29.5097 36.2833L27.8744 36.5833L26.6851 36.7833C25.5144 37 24.8454 38.1667 25.3657 39.1167L25.8674 40.0833L28.3947 44.9833L25.7559 46.0833L23.2286 41.2L22.7455 40.2333C22.6304 40.0039 22.4581 39.8012 22.2418 39.641C22.0255 39.4807 21.771 39.3672 21.498 39.3092C21.225 39.2513 20.9408 39.2503 20.6674 39.3065C20.3939 39.3627 20.1385 39.4745 19.9209 39.6333L18.9732 40.3L17.6538 41.25V27.3333ZM16.2786 23.4833C15.9041 23.4833 15.5448 23.6168 15.28 23.8543C15.0151 24.0919 14.8663 24.4141 14.8663 24.75V43.8333C14.8663 44.5333 15.4982 45.1 16.2786 45.1C16.6317 45.1 16.929 45 17.1706 44.8333L20.72 42.25L23.8047 48.2833C24.0463 48.7333 24.548 49 25.0869 49C25.2914 49 25.4958 49 25.7002 48.8667L30.8291 46.7333C31.5352 46.4333 31.8697 45.6667 31.4981 45.05L28.3947 39L32.8732 38.25C33.18 38.1765 33.4572 38.0262 33.6723 37.8167C34.174 37.2833 34.0997 36.5 33.4493 36.0167L17.2078 23.7667L17.1892 23.7833C16.9347 23.59 16.6121 23.4838 16.2786 23.4833ZM24.1578 25.6667V22.3333H33.4493V25.6667H24.1578ZM21.9836 16.9333L27.2426 12.2167L29.8628 14.5667L24.6038 19.2833L21.9836 16.9333ZM14.8663 9H18.5829V17.3333H14.8663V9ZM3.5865 33.4333L8.84547 28.7167L11.4657 31.0667L6.2067 35.7833L3.5865 33.4333ZM3.5865 14.5667L6.2067 12.2167L11.4657 16.9333L8.84547 19.2833L3.5865 14.5667ZM9.29146 25.6667H0V22.3333H9.29146V25.6667Z" fill="#2C3E50"/>
</svg>
